<svg width="152" height="105" viewBox="0 0 152 105" fill="none" xmlns="http://www.w3.org/2000/svg">
<path d="M62.5043 0C63.0213 0.92336 63.2485 1.77494 63.4444 2.81263C63.5058 3.13465 63.5672 3.45666 63.6304 3.78843C63.6925 4.12401 63.7547 4.45959 63.8187 4.80534C63.8808 5.13075 63.9429 5.45615 64.0069 5.79142C64.315 7.42516 64.5973 9.05889 64.8409 10.7035C65.109 12.4892 65.4746 14.2429 65.8632 16.0056C66.3385 18.2122 66.7109 20.3669 66.9215 22.6141C67.1278 24.5425 67.5817 26.4008 68.0355 28.2839C68.5798 30.5441 69.0622 32.7734 69.3499 35.0808C69.6981 37.8585 70.2523 40.5839 70.8285 43.3211C71.4087 46.079 71.9841 48.8303 72.416 51.6162C72.7125 53.4976 73.0945 55.3597 73.4754 57.2256C73.9265 59.4378 74.3279 61.6315 74.6175 63.8706C74.8561 65.4644 75.1876 67.0382 75.5106 68.6166C75.8931 70.49 76.2323 72.3644 76.524 74.2544C77.0864 72.7637 77.3154 71.3098 77.528 69.7414C77.7759 68.0001 78.0428 66.2745 78.4042 64.5523C78.8135 62.5879 79.134 60.6148 79.4447 58.6325C80.6883 50.7166 80.6883 50.7166 81.1972 49.6978C103.077 49.6978 124.956 49.6978 147.499 49.6978C147.499 51.4343 147.499 53.1708 147.499 54.9599C127.065 55.0564 106.631 55.1529 85.5784 55.2523C84.6531 59.995 84.6531 59.995 83.9537 64.7533C83.7425 66.4079 83.5208 68.03 83.114 69.65C82.6533 71.4849 82.3851 73.3348 82.1099 75.2045C81.7359 77.7294 81.3115 80.2325 80.7956 82.7322C80.1779 85.7265 79.6254 88.7288 79.0979 91.74C79.061 91.9505 79.024 92.161 78.986 92.3778C78.118 97.3027 78.118 97.3027 77.3637 102.246C77.3148 102.594 77.2658 102.942 77.2154 103.301C77.18 103.556 77.1446 103.811 77.1081 104.073C76.9154 104.073 76.7226 104.073 76.524 104.073C76.4545 103.594 76.4545 103.594 76.3837 103.105C75.9323 100.08 75.3648 97.0969 74.724 94.1073C74.3437 92.3128 74.0153 90.5218 73.7493 88.7069C73.4025 86.3421 72.916 84.0201 72.3767 81.6919C72.04 80.2116 71.7719 78.7418 71.5667 77.2372C71.2762 75.1077 70.8627 73.0145 70.4269 70.9107C69.8297 67.9877 69.2722 65.0617 68.7756 62.1198C68.4146 59.9946 68.0111 57.8793 67.5974 55.7639C67.1723 53.5884 66.7738 51.4153 66.4474 49.2228C66.102 46.9178 65.638 44.6479 65.1493 42.3695C64.4872 39.2488 63.9277 36.1107 63.3711 32.9698C63.3349 32.7671 63.2988 32.5644 63.2616 32.3556C63.1629 31.8013 63.065 31.2469 62.9673 30.6925C62.8137 29.8083 62.8137 29.8083 62.5043 28.9417C62.4766 29.1175 62.4488 29.2933 62.4203 29.4744C61.883 32.8523 61.3047 36.2125 60.5876 39.5573C59.9997 42.3068 59.5129 45.056 59.1021 47.8371C58.9157 49.0917 58.7203 50.3449 58.5248 51.598C58.4888 51.8342 58.4528 52.0704 58.4157 52.3138C58.2739 53.2266 58.1235 54.0818 57.8311 54.9599C38.7468 54.9599 19.6626 54.9599 0 54.9599C0 53.2234 0 51.4869 0 49.6978C17.6385 49.6978 35.277 49.6978 53.45 49.6978C53.7391 47.8166 53.7391 47.8166 54.0341 45.8974C54.3273 44.5739 54.3273 44.5739 54.4735 43.9471C54.7794 42.5084 54.97 41.0484 55.1842 39.5938C55.5525 37.1473 55.9434 34.7138 56.4164 32.2853C56.6232 31.2154 56.8129 30.143 57.0005 29.0696C58.1036 22.7624 58.1036 22.7624 58.7438 20.007C59.1787 18.132 59.508 16.2601 59.7919 14.3567C60.1602 11.9363 60.6104 9.53166 61.0622 7.12579C61.1002 6.92264 61.1381 6.71949 61.1773 6.51019C61.585 4.33191 62.0066 2.15974 62.5043 0Z" fill="black" fill-opacity="0.9"/>
<path d="M108.322 58.4922C118.361 58.4922 118.361 58.4922 119.968 59.7164C121.583 61.856 121.708 63.744 121.465 66.3854C121.203 67.5788 120.817 68.2669 119.804 68.9982C119.47 69.1519 119.47 69.1519 119.129 69.3088C119.273 69.4286 119.417 69.5485 119.566 69.6719C119.753 69.8294 119.94 69.987 120.133 70.1493C120.319 70.3053 120.505 70.4613 120.697 70.622C121.173 71.0628 121.173 71.0628 121.465 71.6475C121.49 72.3516 121.499 73.047 121.494 73.751C121.493 73.9578 121.493 74.1646 121.492 74.3777C121.491 75.039 121.487 75.7002 121.483 76.3615C121.482 76.8095 121.481 77.2575 121.479 77.7056C121.476 78.8045 121.471 79.9034 121.465 81.0024C119.634 81.0024 117.803 81.0024 115.916 81.0024C115.819 77.8188 115.723 74.6352 115.624 71.3552C115.142 71.1622 114.66 70.9693 114.163 70.7705C114.163 74.147 114.163 77.5235 114.163 81.0024C112.236 81.0024 110.308 81.0024 108.322 81.0024C108.322 73.574 108.322 66.1457 108.322 58.4922ZM114.163 62.2926C114.163 64.0291 114.163 65.7656 114.163 67.5547C115.516 67.4246 115.516 67.4246 115.916 66.9701C115.96 66.295 115.981 65.6184 115.989 64.942C115.996 64.5715 116.004 64.2011 116.012 63.8194C115.98 63.5085 115.948 63.1976 115.916 62.8773C115.094 62.2115 115.094 62.2115 114.163 62.2926Z" fill="black" fill-opacity="0.9"/>
<path d="M11.9751 22.5102C13.4051 23.4542 14.2573 24.4043 14.8959 26.0183C14.9933 26.8399 14.9795 27.6409 14.9506 28.4666C14.9235 29.57 14.9235 29.57 14.8959 30.6957C12.9682 30.6957 11.0405 30.6957 9.05435 30.6957C8.95796 29.1522 8.86158 27.6086 8.76227 26.0183C8.03938 25.8736 8.03938 25.8736 7.30189 25.726C7.39828 30.7425 7.49466 35.7591 7.59397 40.9276C7.97951 40.9276 8.36505 40.9276 8.76227 40.9276C9.09983 39.9141 9.15025 39.0153 9.21864 37.9494C9.24311 37.5775 9.26759 37.2055 9.2928 36.8223C9.31935 36.3944 9.31935 36.3944 9.34643 35.9579C8.96088 35.9579 8.57534 35.9579 8.17812 35.9579C8.17812 34.8967 8.17812 33.8355 8.17812 32.7421C10.395 32.7421 12.6118 32.7421 14.8959 32.7421C14.8959 36.6975 14.8959 40.6528 14.8959 44.7281C13.6429 44.7281 12.3899 44.7281 11.0989 44.7281C10.9061 44.3422 10.7133 43.9563 10.5147 43.5587C10.2436 43.7938 9.97256 44.029 9.69327 44.2713C8.81032 45.0372 8.13862 45.288 6.95505 45.4041C5.40881 45.2772 4.18066 44.7975 3.05309 43.706C1.13848 41.4458 1.12232 39.3698 1.10896 36.5345C1.1073 36.2575 1.10563 35.9804 1.10392 35.695C1.10117 35.1114 1.09925 34.5279 1.09812 33.9444C1.09528 33.0565 1.08621 32.1688 1.07702 31.281C1.07511 30.7117 1.07357 30.1425 1.07245 29.5732C1.06885 29.3103 1.06524 29.0475 1.06152 28.7766C1.06808 26.8999 1.29972 25.2035 2.50545 23.683C5.36664 21.4147 8.62771 20.8224 11.9751 22.5102Z" fill="black" fill-opacity="0.9"/>
<path d="M125.262 58.4922C128.057 58.4922 130.852 58.4922 133.732 58.4922C134.152 59.9628 134.426 61.1451 134.588 62.6329C134.633 63.0344 134.678 63.4358 134.724 63.8372C134.747 64.0445 134.77 64.2518 134.793 64.4653C135.159 67.7722 135.597 71.0295 136.274 74.2892C136.726 76.531 136.86 78.7172 136.945 81.0024C135.017 81.0024 133.09 81.0024 131.103 81.0024C130.959 79.1212 130.959 79.1212 130.811 77.202C130.137 77.202 129.462 77.202 128.767 77.202C128.67 78.4561 128.574 79.7102 128.475 81.0024C126.547 81.0024 124.619 81.0024 122.633 81.0024C122.588 78.8903 122.623 76.9691 123.051 74.9044C123.264 73.7322 123.386 72.5579 123.51 71.3734C123.69 69.6548 123.916 67.9607 124.218 66.2586C124.633 63.6804 124.931 61.0819 125.262 58.4922ZM129.643 65.216C129.084 67.8689 128.611 70.3812 128.767 73.1092C129.345 73.1092 129.924 73.1092 130.519 73.1092C130.478 72.2321 130.435 71.3551 130.392 70.4781C130.38 70.2328 130.369 69.9875 130.357 69.7347C130.28 68.2154 130.143 66.7232 129.935 65.216C129.839 65.216 129.742 65.216 129.643 65.216Z" fill="black" fill-opacity="0.9"/>
<path d="M27.4549 22.5102C28.6568 23.2933 29.3635 24.0475 29.7915 25.4336C29.8651 26.6089 29.8174 27.7624 29.7915 28.9416C27.9601 28.9416 26.1288 28.9416 24.242 28.9416C24.0974 27.4946 24.0974 27.4946 23.9499 26.0182C23.3716 26.0182 22.7933 26.0182 22.1975 26.0182C22.2881 26.4873 22.3795 26.9563 22.4713 27.4251C22.5221 27.6863 22.573 27.9474 22.6253 28.2165C22.775 28.975 22.775 28.975 23.0737 29.8187C23.5558 30.025 24.0438 30.2173 24.5341 30.4033C25.1822 30.8048 25.8075 31.2118 26.4326 31.6458C26.5949 31.7539 26.7571 31.8621 26.9243 31.9735C28.6346 33.1537 29.894 34.45 30.3756 36.5425C30.5727 38.6484 30.754 40.9352 29.6192 42.8038C28.3786 44.1969 26.7485 44.9721 24.9049 45.09C20.2304 45.2072 20.2304 45.2072 18.6926 43.851C16.6421 41.7051 16.9088 39.3638 16.9401 36.5425C18.7714 36.5425 20.6027 36.5425 22.4896 36.5425C22.5859 37.9896 22.6823 39.4367 22.7816 40.9276C23.2636 40.9276 23.7455 40.9276 24.242 40.9276C24.2737 40.3676 24.2963 39.8072 24.315 39.2466C24.3354 38.7786 24.3354 38.7786 24.3561 38.3011C24.212 37.1873 23.945 36.9396 23.0737 36.2502C22.2914 35.6911 21.4999 35.1552 20.6977 34.6257C19.1519 33.584 17.6975 32.4367 16.9401 30.6957C16.8176 29.767 16.8177 28.854 16.8306 27.9185C16.8255 27.5493 16.8255 27.5493 16.8203 27.1728C16.827 25.766 16.9088 24.8199 17.8163 23.6795C20.461 21.1501 24.2257 20.8658 27.4549 22.5102Z" fill="black" fill-opacity="0.9"/>
<path d="M144.101 58.0171C144.336 58.0115 144.57 58.0058 144.812 58C146.614 58.0146 147.807 58.5408 149.212 59.6615C150.767 61.3684 150.402 63.3204 150.381 65.5083C148.549 65.5083 146.718 65.5083 144.831 65.5083C144.831 64.3507 144.831 63.193 144.831 62.0003C144.349 62.1932 143.867 62.3862 143.371 62.5849C143.341 62.9407 143.311 63.2964 143.28 63.6629C143.263 63.8631 143.246 64.0632 143.228 64.2693C143.51 65.5644 144.624 66.2435 145.669 66.9575C145.959 67.1365 146.248 67.3155 146.547 67.4999C148.459 68.7584 150.198 70.017 150.8 72.3235C151.181 74.7849 151.25 77.2766 150.089 79.5407C148.794 81.0328 146.796 81.4599 144.896 81.6818C142.819 81.7664 141.001 81.407 139.399 80.0112C137.551 77.9614 137.768 75.7038 137.821 73.1092C139.556 73.1092 141.291 73.1092 143.079 73.1092C143.145 74.0799 143.212 75.0505 143.278 76.0212C143.316 76.8848 143.316 76.8848 143.663 77.4943C144.386 77.3496 144.386 77.3496 145.123 77.202C145.222 75.0772 145.222 75.0772 144.539 73.1092C143.616 72.3498 142.618 71.7152 141.618 71.0628C141.139 70.7287 140.664 70.3879 140.194 70.0396C139.99 69.8919 139.786 69.7442 139.576 69.592C138.371 68.4088 137.773 67.2867 137.666 65.6168C137.663 65.1361 137.666 64.6552 137.675 64.1745C137.671 63.9336 137.666 63.6926 137.662 63.4443C137.672 61.8533 137.884 60.8815 138.99 59.6615C140.602 58.2913 142.022 57.967 144.101 58.0171Z" fill="black" fill-opacity="0.9"/>
<path d="M70 17.2481C72.3847 17.1491 74.6623 17.4214 77.0098 17.8328C77.282 17.8795 77.5543 17.9262 77.8347 17.9744C84.4623 19.3749 90.1125 23.0431 94.8265 27.7723C95.0848 28.0274 95.3431 28.2826 95.6092 28.5454C99.7883 32.8912 103.881 39.7219 103.881 45.8974C102.531 45.8974 101.182 45.8974 99.7918 45.8974C99.6743 45.4407 99.6743 45.4407 99.5545 44.9747C97.3841 36.8877 92.6782 30.0496 85.4214 25.7346C80.7818 23.0769 75.8835 21.7045 70.5842 21.3408C70.4854 20.8783 70.3884 20.4153 70.2921 19.9522C70.2379 19.6945 70.1836 19.4367 70.1278 19.1711C70 18.4174 70 18.4174 70 17.2481Z" fill="black" fill-opacity="0.9"/>
<path d="M35.6333 58.1757C37.0791 58.1757 38.5249 58.1757 40.0144 58.1757C40.0867 58.5962 40.159 59.0168 40.2335 59.4501C40.5629 61.0882 41.1044 62.5656 41.7669 64.0956C41.8825 64.3627 41.9982 64.6299 42.1173 64.9051C43.1855 67.2859 44.4822 69.3305 46.148 71.331C46.2738 71.4841 46.3995 71.6373 46.529 71.795C52.3549 78.7938 60.0794 81.6681 68.93 82.7322C69.0288 83.1948 69.1258 83.6578 69.2221 84.1209C69.3034 84.5075 69.3034 84.5075 69.3864 84.902C69.5142 85.6556 69.5142 85.6556 69.5142 86.825C59.8723 86.5807 51.3029 83.0202 44.4652 76.0701C40.8965 72.1568 38.2821 67.6599 36.5095 62.6887C36.421 62.4416 36.3324 62.1945 36.2412 61.94C36.1611 61.7043 36.0809 61.4686 35.9984 61.2258C35.9276 61.018 35.8568 60.8101 35.7839 60.596C35.6333 59.9297 35.6333 59.9297 35.6333 58.1757Z" fill="black" fill-opacity="0.9"/>
<path d="M54.6183 20.7561C54.5479 21.6435 54.4523 22.5073 54.3262 23.3872C54.3028 23.6009 54.2795 23.8146 54.2554 24.0347C53.811 26.1925 52.1109 27.1769 50.4459 28.4084C47.8692 30.3269 45.8388 32.6798 44.1035 35.3732C43.8866 35.6807 43.6698 35.9882 43.4463 36.305C42.87 37.2321 42.47 38.1622 42.059 39.1736C41.8595 39.6249 41.6587 40.0755 41.4566 40.5256C41.3576 40.7495 41.2585 40.9733 41.1565 41.204C40.9598 41.6484 40.7614 42.0922 40.5621 42.5355C40.1775 43.6353 39.9604 44.7571 39.7224 45.8974C38.373 45.8974 37.0236 45.8974 35.6333 45.8974C36.1817 37.8007 41.5643 30.3614 47.4133 25.115C52.6133 20.7561 52.6133 20.7561 54.6183 20.7561Z" fill="black" fill-opacity="0.9"/>
<path d="M101.604 58.1998C102.953 58.1998 104.303 58.1998 105.693 58.1998C105.508 63.3805 102.364 69.0752 99.2672 73.1092C99.0921 73.3436 98.9171 73.578 98.7367 73.8195C95.766 77.7369 91.9218 80.7741 87.5842 83.0488C87.3914 83.0488 87.1986 83.0488 87 83.0488C87.0749 82.3966 87.1551 81.745 87.2373 81.0937C87.2814 80.7308 87.3254 80.3679 87.3708 79.994C87.7679 78.062 88.7133 77.2035 90.2676 76.0874C95.3385 72.2904 98.9726 66.9437 100.728 60.8309C100.89 60.337 101.054 59.8436 101.22 59.3509C101.347 58.9711 101.473 58.5912 101.604 58.1998Z" fill="black" fill-opacity="0.9"/>
</svg>
